<?xml version="1.0" encoding="utf-8"?>
<!-- Svg Vector Icons : http://www.onlinewebfonts.com/icon -->
<!DOCTYPE svg PUBLIC "-//W3C//DTD SVG 1.1//EN" "http://www.w3.org/Graphics/SVG/1.1/DTD/svg11.dtd">
<svg version="1.1" xmlns="http://www.w3.org/2000/svg" xmlns:xlink="http://www.w3.org/1999/xlink" x="0px" y="0px" viewBox="0 0 1000 1000" enable-background="new 0 0 1000 1000" xml:space="preserve">
<metadata> Svg Vector Icons : http://www.onlinewebfonts.com/icon </metadata>
<g><path d="M532.6,520"/><path d="M795.6,950.2H45c-10.4,0-20.2-4.6-26.8-12.5c-6.6-7.9-9.4-18.4-7.6-28.6c34.1-190.3,115.7-329.6,228.1-393.4c-53.4-50.6-85.7-123.2-85.7-198.6c0-147.2,119.9-267,267.4-267c147.4,0,267.4,120.3,267.4,268.2c0,75.9-31.7,147.2-85.4,197.4C714.3,579.6,795.9,718.9,830,909.1c1.8,10.2-1,20.7-7.6,28.6C815.7,945.6,805.9,950.2,795.6,950.2z M87.9,880.3h664.8c-24.4-105.1-85.8-278.8-230.4-323.5c-13.4-4.1-23-15.9-24.4-29.8c-1.4-14,5.6-27.4,17.9-34.2c62.9-34.8,102-101.7,102-174.4c0-109.3-88.6-198.2-197.4-198.2c-108.9,0-197.4,88.4-197.4,197c0,72.5,40,141.6,102,175.9c12.3,6.8,19.3,20.2,17.9,34.2c-1.4,14-11.1,25.7-24.4,29.8C173.7,601.7,112.2,775.3,87.9,880.3z"/><path d="M795.6,950.2H45c-10.4,0-20.2-4.6-26.8-12.5c-6.6-7.9-9.4-18.4-7.6-28.6c34.1-190.3,115.8-329.7,228.1-393.5c-53.4-50.6-85.7-123.3-85.7-198.7c0-147.3,119.9-267.1,267.4-267.1c44.3,0,87.7,11.1,126.8,32.3c26.1-9.6,53.5-14.4,81.5-14.4c130.8,0,237.2,106.9,237.2,238.3c0,65.5-26.3,127.1-71.1,171.4c97.6,57.4,165.9,177,195,344.5c1.8,10.2-1.1,20.6-7.7,28.5c-6.6,7.9-16.4,12.5-26.8,12.5H820.4c3.6,13.8,6.9,28.2,9.8,47.3c1.5,10.1-1.4,20.3-8.1,28C815.5,945.8,805.8,950.2,795.6,950.2z M87.9,880.3h664.8c-1-3.8-2-7.8-3.1-11.9c-2.6-9.7-5.4-20.1-8.3-32.7c-2.4-10.4,0-21.3,6.7-29.7c6.6-8.3,16.7-13.2,27.4-13.2h137c-23-100.2-76-237-196.4-274.3c-13.4-4.1-23-15.9-24.4-29.8c-1.4-14,5.6-27.4,17.9-34.2c52.5-29.1,86.4-87.4,86.4-148.6c0-92.8-75-168.3-167.2-168.3c-24.2,0-47.6,5.1-69.7,15.2c-10.8,4.9-23.3,4.1-33.3-2.3c-31.7-20.1-68.1-30.8-105.2-30.8c-108.9,0-197.4,88.5-197.4,197.2c0,72.6,40,141.6,102,176c12.3,6.8,19.3,20.3,17.9,34.2c-1.4,13.9-11.1,25.7-24.4,29.8C173.7,601.6,112.2,775.2,87.9,880.3z"/></g>
</svg>